#!OML:ASF H:\Terrain\Patient Classification 1\Walking\liu\liu.ASF
:FULLY-SPECIFIED
:DEGREES
264
root 10.2861 17.1008 3.96737 5.66804 -6.60939 0.553196
lowerback -6.56875 0.103645 -3.95431
upperback -1.36426 0.362461 1.74311
thorax 2.23741 0.153492 4.05943
lowerneck -22.0935 -4.77142 -11.7389
upperneck 23.6516 -6.36468 13.0062
head 12.319 -2.2734 5.87249
rclavicle -2.63312e-015 1.19271e-014
rhumerus -43.7444 14.8124 -90.2545
rradius 41.9322
rwrist -23.4677
rhand -29.7864 -23.8854
rfingers 7.12502
rthumb -3.1112 -53.8424
lclavicle -2.63312e-015 1.19271e-014
lhumerus -37.8834 -7.61803 89.6681
lradius 25.9234
lwrist 5.62103
lhand -10.7311 -20.7149
lfingers 7.12502
lthumb 15.2795 8.70069
rfemur -8.7652 -3.55972 18.6905
rtibia 60.3211
rfoot -0.227431 -12.3346
rtoes -16.4443
lfemur -22.6134 8.66659 -24.5371
ltibia 23.7689
lfoot -10.2879 -0.171793
ltoes -10.6381
265
root 10.3084 17.1195 4.08501 5.69918 -6.48194 0.647509
lowerback -6.51009 0.000842705 -4.04148
upperback -1.37768 0.229641 1.72638
thorax 2.20364 0.0877831 4.07983
lowerneck -22.2331 -4.70359 -11.624
upperneck 23.7345 -6.28212 12.9408
head 12.3595 -2.22941 5.84545
rclavicle 1.39219e-014 5.1684e-015
rhumerus -44.0193 15.3435 -90.4602
rradius 42.3794
rwrist -23.8404
rhand -30.0531 -23.3737
rfingers 7.12502
rthumb -3.36878 -53.3268
lclavicle 1.39219e-014 5.1684e-015
lhumerus -37.2735 -7.72065 89.364
lradius 26.1575
lwrist 5.55891
lhand -10.8804 -20.4756
lfingers 7.12502
lthumb 15.1357 8.9509
rfemur -9.99181 -3.55067 18.7393
rtibia 61.1705
rfoot -0.808137 -12.1174
rtoes -16.3615
lfemur -21.9533 8.30825 -24.7022
ltibia 23.2638
lfoot -10.4323 0.232824
ltoes -10.3605
266
root 10.3308 17.144 4.21512 5.60452 -6.33616 0.951064
lowerback -6.66437 -0.102331 -4.22509
upperback -1.2937 0.115137 1.59564
thorax 2.38797 0.0236211 4.03968
lowerneck -21.8505 -4.63164 -11.6229
upperneck 23.4064 -6.23605 13.1071
head 12.1548 -2.20069 5.9018
rclavicle 1.49011e-015 -9.14409e-015
rhumerus -44.1285 15.1188 -90.2633
rradius 42.5766
rwrist -23.3697
rhand -29.1914 -22.4485
rfingers 7.12502
rthumb -2.53653 -52.4132
lclavicle 1.49011e-015 -9.14409e-015
lhumerus -36.6269 -8.24197 89.2597
lradius 26.1913
lwrist 6.62429
lhand -11.5837 -20.8853
lfingers 7.12502
lthumb 14.4582 8.59101
rfemur -10.975 -3.42284 18.5783
rtibia 61.7876
rfoot -1.75994 -12.3103
rtoes -15.5071
lfemur -21.1218 8.08383 -25.0991
ltibia 22.7995
lfoot -10.8593 0.395561
ltoes -10.1914
267
root 10.3536 17.162 4.34418 5.42362 -6.17768 1.13964
lowerback -6.64548 -0.226298 -4.37875
upperback -1.1978 -0.0381126 1.57092
thorax 2.49224 -0.0583874 4.0881
lowerneck -21.8368 -4.62719 -11.5674
upperneck 23.4482 -6.20385 12.9314
head 12.1538 -2.20327 5.82899
rclavicle -4.66833e-015 7.95139e-016
rhumerus -44.2908 15.0552 -90.1331
rradius 42.7166
rwrist -23.1547
rhand -28.8122 -22.5261
rfingers 7.12502
rthumb -2.17037 -52.4948
lclavicle -4.66833e-015 7.95139e-016
lhumerus -35.9775 -8.48421 89.0972
lradius 26.1549
lwrist 6.41827
lhand -12.4751 -21.4442
lfingers 7.12502
lthumb 13.5991 8.09168
rfemur -11.8642 -3.344 18.5532
rtibia 62.236
rfoot -3.05191 -12.6556
rtoes -14.2931
lfemur -20.2461 7.84906 -25.3401
ltibia 22.3962
lfoot -11.3538 0.627438
ltoes -10.183
268
root 10.3752 17.1611 4.46558 5.28835 -6.0031 1.11677
lowerback -6.46574 -0.40393 -4.43913
upperback -1.12183 -0.279806 1.6644
thorax 2.49619 -0.181394 4.19866
lowerneck -22.3826 -4.56158 -11.3421
upperneck 23.9206 -6.06187 12.5356
head 12.4011 -2.15082 5.68133
rclavicle -7.54605e-015 1.11319e-014
rhumerus -44.3256 15.2748 -89.925
rradius 42.8691
rwrist -22.9145
rhand -28.1793 -23.7641
rfingers 7.12502
rthumb -1.55911 -53.7381
lclavicle -7.54605e-015 1.11319e-014
lhumerus -35.1855 -8.0433 88.6598
lradius 26.2014
lwrist 6.20649
lhand -12.3007 -21.3597
lfingers 7.12502
lthumb 13.7672 8.16477
rfemur -12.8366 -3.3566 18.7671
rtibia 62.6044
rfoot -4.20058 -12.5209
rtoes -15.11
lfemur -19.5399 7.50412 -25.3383
ltibia 22.1933
lfoot -11.6175 0.923102
ltoes -9.87779
269
root 10.394 17.1532 4.58495 5.23265 -5.71106 1.29228
lowerback -6.29474 -0.619878 -4.69645
upperback -1.16416 -0.558323 1.67281
thorax 2.38857 -0.318734 4.3298
lowerneck -22.4685 -4.40945 -11.296
upperneck 24.0229 -5.89158 12.6403
head 12.4354 -2.05504 5.75165
rclavicle 1.55627e-014 -7.15625e-015
rhumerus -44.4212 15.2107 -89.7663
rradius 42.981
rwrist -22.4687
rhand -27.8777 -23.7381
rfingers 7.12502
rthumb -1.26781 -53.7141
lclavicle 1.55627e-014 -7.15625e-015
lhumerus -34.4606 -7.82217 88.1999
lradius 26.314
lwrist 6.36261
lhand -11.4486 -20.8806
lfingers 7.12502
lthumb 14.5883 8.58636
rfemur -13.883 -3.50589 18.7569
rtibia 62.8862
rfoot -5.61336 -12.1635
rtoes -18.1706
lfemur -19.0661 7.17313 -25.5966
ltibia 22.2744
lfoot -11.7878 0.894413
ltoes -10.2711
270
root 10.4129 17.1545 4.70459 5.26052 -5.55861 1.32862
lowerback -6.30352 -0.696815 -4.6949
upperback -1.17415 -0.659778 1.63989
thorax 2.3939 -0.369166 4.2859
lowerneck -22.4508 -4.37707 -11.2678
upperneck 24.0325 -5.91386 12.8237
head 12.4457 -2.03995 5.8175
rclavicle 3.37779e-015 9.54166e-015
rhumerus -44.4407 14.6071 -89.601
rradius 42.9906
rwrist -21.8497
rhand -28.1579 -23.3734
rfingers 7.12502
rthumb -1.53844 -53.3476
lclavicle 3.37779e-015 9.54166e-015
lhumerus -33.6673 -8.03257 87.7737
lradius 26.4021
lwrist 6.03214
lhand -10.7134 -20.6403
lfingers 7.12502
lthumb 15.2966 8.774
rfemur -15.0032 -3.45181 18.9214
rtibia 63.0081
rfoot -6.68795 -12.098
rtoes -19.3224
lfemur -18.6964 7.24026 -25.768
ltibia 22.4246
lfoot -11.9831 0.768864
ltoes -11.5755
271
root 10.4318 17.1606 4.8223 5.20168 -5.46441 1.10261
lowerback -6.27606 -0.737284 -4.42078
upperback -1.05531 -0.733234 1.69295
thorax 2.50716 -0.409216 4.17935
lowerneck -22.6824 -4.41254 -11.2489
upperneck 24.117 -5.96325 12.8461
head 12.5338 -2.05011 5.8205
rclavicle -1.2275e-014 -1.19271e-014
rhumerus -44.2099 14.1459 -89.389
rradius 42.7369
rwrist -21.2959
rhand -28.3291 -23.8953
rfingers 7.12502
rthumb -1.70374 -53.8682
lclavicle -1.2275e-014 -1.19271e-014
lhumerus -32.7276 -7.82869 87.2073
lradius 26.597
lwrist 5.6358
lhand -9.17191 -20.1566
lfingers 7.12502
lthumb 16.781 9.13821
rfemur -15.9687 -3.26982 19.379
rtibia 62.9713
rfoot -7.33817 -12.1562
rtoes -17.1232
lfemur -18.171 7.64306 -25.6608
ltibia 22.452
lfoot -12.282 0.597131
ltoes -12.1166
272
root 10.4499 17.1586 4.93976 4.98325 -5.22376 1.32443
lowerback -6.13176 -0.854516 -4.62519
upperback -0.903538 -0.878189 1.62039
thorax 2.60088 -0.488556 4.20753
lowerneck -22.9276 -4.43193 -11.142
upperneck 24.1542 -5.98146 12.754
head 12.5933 -2.05184 5.76451
rclavicle -9.37083e-015 3.57812e-015
rhumerus -44.1585 14.2755 -89.4667
rradius 42.8008
rwrist -21.3935
rhand -28.4142 -24.8578
rfingers 7.12502
rthumb -1.78597 -54.8301
lclavicle -9.37083e-015 3.57812e-015
lhumerus -31.8717 -8.01281 86.9031
lradius 26.7216
lwrist 5.90425
lhand -8.41806 -19.8409
lfingers 7.12502
lthumb 17.5066 9.39085
rfemur -16.7977 -3.31923 19.2558
rtibia 62.8603
rfoot -8.41388 -12.0585
rtoes -14.8579
lfemur -17.4384 7.66881 -25.9561
ltibia 22.4119
lfoot -12.7242 0.337607
ltoes -12.3816
